# xmcd
#
# Track frame offsets: 
#        182
#        12287
#        43020
#        70422
#        108227
#        131447
#        161650
#        185025
#        198682
#        216400
#        243095
#        261940
#        276695
#        294852
#        305237
#
# Disc length: 4433 seconds
#
# Revision: 2
# Processed by: cddbd v1.5.2PL0 Copyright (c) Steve Scherf et al.
# Submitted via: ExactAudioCopyFreeDBPlugin 1.0
#
DISCID=ef114f0f
DTITLE=Various Artist - Deep Blues (Original Motion Picture Soundtrac
DTITLE=k)
DYEAR=1992
DGENRE=Blues
TTITLE0=R.L. Brunside - Jumper on the Line
TTITLE1=Junior Kimbrough - Jr. Blues
TTITLE2=Big Jack Johnson - Catfish Blues
TTITLE3=Big Jack Johnson - Daddy, When is Momma Coming Home
TTITLE4=Big Jack Johnson - Big Boy Now
TTITLE5=Frank Frost - Midnight Prowler
TTITLE6=Jesse Mae Hemphill - You Can Talk About Me
TTITLE7=Jesse Mae Hemphill - Shame on You
TTITLE8=R.L. Brunside - Long Haired Doney
TTITLE9=Roosevelt "Booba" Barnes - Heartbroken Man
TTITLE10=Roosevelt "Booba" Barnes - Ain't Gonna Worry About Tomorrow
TTITLE11=Roosevelt "Booba" Barnes - Love Like I Wanna
TTITLE12=Lonnie Pitchford - Terraplane Blues
TTITLE13=Lonnie Pitchford - If I Had Possession Over Judgment Day
TTITLE14=Jack Owens and Bud Spires - Devil Blues
EXTD=
EXTT0=R.L. Burnside\n
EXTT1=Jr. Kimbrough\n
EXTT2=Big Jack Johnson\n
EXTT3=Big Jack Johnson\n
EXTT4=Big Jack Johnson\n
EXTT5=Frank Frost\n
EXTT6=Jessie Mae Hemphill\n
EXTT7=Jessie Mae Hemphill\n
EXTT8=R.L. Burnside\n
EXTT9=Roosevelt Booba Barnes\n
EXTT10=Roosevelt Booba Barnes\n
EXTT11=Roosevelt Booba Barnes\n
EXTT12=Lonnie Pitchford\n
EXTT13=Lonnie Pitchford\n
EXTT14=Jack Owens and Bud Spires\n
PLAYORDER=
